<?xml version="1.0" encoding="UTF-8"?>
<svg xmlns="http://www.w3.org/2000/svg" xmlns:xlink="http://www.w3.org/1999/xlink" viewBox="0 0 64 64" width="64px" height="64px">
<g id="surface1363872">
<path style=" stroke:none;fill-rule:nonzero;fill:rgb(90.588236%,29.803923%,23.529412%);fill-opacity:1;" d="M 26.9375 4 C 26.042969 4 25.203125 4.394531 24.632812 5.082031 C 24.574219 5.148438 24.527344 5.226562 24.488281 5.308594 L 22.355469 10 L 11 10 C 9.347656 10 8 11.347656 8 13 L 8 19 C 8 20.652344 9.347656 22 11 22 L 13 22 L 13 57 C 13 58.652344 14.347656 60 16 60 L 48 60 C 49.652344 60 51 58.652344 51 57 L 51 22 L 53 22 C 54.652344 22 56 20.652344 56 19 L 56 13 C 56 11.347656 54.652344 10 53 10 L 41.644531 10 L 39.511719 5.308594 C 39.476562 5.226562 39.425781 5.148438 39.371094 5.082031 C 38.796875 4.394531 37.957031 4 37.066406 4 Z M 26.9375 6 L 37.0625 6 C 37.324219 6 37.570312 6.101562 37.753906 6.277344 L 39.449219 10 L 24.554688 10 L 26.246094 6.277344 C 26.429688 6.101562 26.675781 6 26.9375 6 Z M 11 12 L 53 12 C 53.550781 12 54 12.449219 54 13 L 54 19 C 54 19.550781 53.550781 20 53 20 L 11 20 C 10.449219 20 10 19.550781 10 19 L 10 13 C 10 12.449219 10.449219 12 11 12 Z M 14 14 C 13.449219 14 13 14.445312 13 15 L 13 17 C 13 17.554688 13.449219 18 14 18 C 14.550781 18 15 17.554688 15 17 L 15 15 C 15 14.445312 14.550781 14 14 14 Z M 19 14 C 18.449219 14 18 14.445312 18 15 L 18 17 C 18 17.554688 18.449219 18 19 18 C 19.550781 18 20 17.554688 20 17 L 20 15 C 20 14.445312 19.550781 14 19 14 Z M 24 14 C 23.449219 14 23 14.445312 23 15 L 23 17 C 23 17.554688 23.449219 18 24 18 C 24.550781 18 25 17.554688 25 17 L 25 15 C 25 14.445312 24.550781 14 24 14 Z M 29 14 C 28.449219 14 28 14.445312 28 15 L 28 17 C 28 17.554688 28.449219 18 29 18 C 29.550781 18 30 17.554688 30 17 L 30 15 C 30 14.445312 29.550781 14 29 14 Z M 35 14 C 34.449219 14 34 14.445312 34 15 L 34 17 C 34 17.554688 34.449219 18 35 18 C 35.550781 18 36 17.554688 36 17 L 36 15 C 36 14.445312 35.550781 14 35 14 Z M 40 14 C 39.449219 14 39 14.445312 39 15 L 39 17 C 39 17.554688 39.449219 18 40 18 C 40.550781 18 41 17.554688 41 17 L 41 15 C 41 14.445312 40.550781 14 40 14 Z M 45 14 C 44.449219 14 44 14.445312 44 15 L 44 17 C 44 17.554688 44.449219 18 45 18 C 45.550781 18 46 17.554688 46 17 L 46 15 C 46 14.445312 45.550781 14 45 14 Z M 50 14 C 49.449219 14 49 14.445312 49 15 L 49 17 C 49 17.554688 49.449219 18 50 18 C 50.550781 18 51 17.554688 51 17 L 51 15 C 51 14.445312 50.550781 14 50 14 Z M 15 22 L 49 22 L 49 57 C 49 57.550781 48.550781 58 48 58 L 16 58 C 15.449219 58 15 57.550781 15 57 L 15 56 L 38 56 C 38.550781 56 39 55.554688 39 55 C 39 54.445312 38.550781 54 38 54 L 15 54 Z M 20 28 C 19.449219 28 19 28.445312 19 29 L 19 41 C 19 41.554688 19.449219 42 20 42 C 20.550781 42 21 41.554688 21 41 L 21 29 C 21 28.445312 20.550781 28 20 28 Z M 28 28 C 27.449219 28 27 28.445312 27 29 L 27 49 C 27 49.554688 27.449219 50 28 50 C 28.550781 50 29 49.554688 29 49 L 29 29 C 29 28.445312 28.550781 28 28 28 Z M 36 28 C 35.449219 28 35 28.445312 35 29 L 35 49 C 35 49.554688 35.449219 50 36 50 C 36.550781 50 37 49.554688 37 49 L 37 29 C 37 28.445312 36.550781 28 36 28 Z M 44 28 C 43.449219 28 43 28.445312 43 29 L 43 33 C 43 33.554688 43.449219 34 44 34 C 44.550781 34 45 33.554688 45 33 L 45 29 C 45 28.445312 44.550781 28 44 28 Z M 44 36 C 43.449219 36 43 36.445312 43 37 L 43 49 C 43 49.554688 43.449219 50 44 50 C 44.550781 50 45 49.554688 45 49 L 45 37 C 45 36.445312 44.550781 36 44 36 Z M 20 44 C 19.449219 44 19 44.445312 19 45 L 19 49 C 19 49.554688 19.449219 50 20 50 C 20.550781 50 21 49.554688 21 49 L 21 45 C 21 44.445312 20.550781 44 20 44 Z M 42 54 C 41.449219 54 41 54.445312 41 55 C 41 55.554688 41.449219 56 42 56 L 46 56 C 46.550781 56 47 55.554688 47 55 C 47 54.445312 46.550781 54 46 54 Z M 42 54 "/>
</g>
</svg>
